<?xml version="1.0" encoding="utf-8"?>
<!-- Generator: Adobe Illustrator 19.1.0, SVG Export Plug-In . SVG Version: 6.00 Build 0)  -->
<svg version="1.1" id="Layer_1" xmlns="http://www.w3.org/2000/svg" xmlns:xlink="http://www.w3.org/1999/xlink" x="0px" y="0px"
	 viewBox="0 0 64 64" enable-background="new 0 0 64 64" xml:space="preserve">
<path id="Scroll_1_" d="M61.7646828,22.1968002c-0.1737976-0.3262005-0.5136986-0.5298004-0.8828011-0.5298004h-22.569397
	c1.3880005-0.8428001,2.9096985-2.2852001,4.330101-4.7446995c1.3612976-2.3579006,1.5224991-4.7802,0.4433975-6.6464005
	c-0.8652992-1.4960995-2.4043007-2.3887-4.1171989-2.3887c-0.0028992,0-0.0049019,0-0.0078011,0
	c-2.125,0.0029001-4.1269989,1.3666997-5.4911995,3.7412c-0.7546997,1.3127003-1.2468987,2.4995003-1.5536995,3.5681
	c-0.3071995-1.0683994-0.7994003-2.2551003-1.5537949-3.5676003c-1.3642044-2.375-3.3662052-3.7387996-5.4912052-3.7416997
	c-0.0028992,0-0.0049,0-0.0077934,0c-1.7129059,0-3.2519054,0.8926005-4.1172066,2.3887
	c-1.0790997,1.8662004-0.9179001,4.2884998,0.4433994,6.6464005c1.4204006,2.4594994,2.9419003,3.9018993,4.3298054,4.7446995
	H3.6074851c-0.3370001,0-0.6503999,0.1693993-0.836,0.4507008c-3.7196999,5.6571999-3.7001953,10.8715,0.0595999,15.4984989
	c0.1904001,0.2334023,0.4756,0.3690987,0.7764001,0.3690987h16.2763004l-7.1201,12.3321037
	c-0.1885004,0.3270988-0.1767006,0.7333984,0.0302992,1.0492973c0.2080002,0.3158989,0.5791006,0.4941025,0.9512005,0.4438019
	l4.579999-0.5326996l1.8271999,4.2314987c0.1473999,0.3422012,0.4736004,0.5737,0.8457012,0.6009979
	c0.0243988,0.001503,0.0487995,0.0025024,0.0722046,0.0025024c0.3457947,0,0.6680012-0.1786995,0.8515949-0.4751015
	l9.6065006-15.5846977l9.607399,15.5846977c0.1836014,0.296402,0.5057983,0.4751015,0.8515053,0.4751015
	c0.0234947,0,0.0478935-0.0009995,0.0722961-0.0025024c0.372097-0.027298,0.6982002-0.2587967,0.8457031-0.6009979
	l1.8271942-4.2314987l4.5791016,0.5326996c0.3710976,0.0444984,0.7430992-0.1284027,0.9510994-0.4438019
	c0.2070999-0.3158989,0.2187996-0.7216988,0.0303001-1.0492973l-7.1194-12.3321037h17.7082977
	c0.3340034,0,0.6465034-0.1669998,0.8320007-0.4447975C64.7499847,32.9930992,64.7665863,27.8309994,61.7646828,22.1968002z
	 M27.5175838,35.9852982V23.6669998h8.8300991v12.3182983H27.5175838z M35.2040825,12.625
	c0.9991035-1.7383003,2.3692055-2.7358999,3.7598-2.7377996c0.0020027,0,0.002903,0,0.0039024,0
	c0.9911995,0,1.8838005,0.5190001,2.3866997,1.3895998c0.7118988,1.2305002,0.5498047,2.9238997-0.4443016,4.6455002
	c-2.7598,4.7787991-5.7196999,4.9419003-6.6288948,4.862299C33.7519836,20.0620003,32.4052887,17.4946003,35.2040825,12.625z
	 M22.9218845,15.9223003c-0.9941006-1.7216005-1.1562004-3.415-0.4442997-4.6455002
	c0.5028992-0.8705997,1.3955002-1.3895998,2.3867054-1.3895998c0.0009995,0,0.001894,0,0.0038948,0
	c1.3906002,0.0018997,2.7607002,0.9994993,3.7598,2.7382994c2.8027,4.8745003,1.4491997,7.4428005,0.9208984,8.1620998
	C28.6660843,20.8686008,25.6933842,20.7212009,22.9218845,15.9223003z M31.9160843,20.5028992
	c0.1716003,0.4736004,0.3698006,0.8655014,0.5565987,1.1641006h-1.1132984
	C31.5463848,21.3684006,31.7443848,20.9764996,31.9160843,20.5028992z M4.1542897,23.6669998h21.3632946v12.3182983H4.0937848
	C1.2880851,32.2798004,1.308585,28.2411995,4.1542897,23.6669998z M21.2265854,52.9530983l-1.3604012-3.150898
	c-0.174799-0.4048004-0.602499-0.6557007-1.0331993-0.5966988l-3.3417997,0.3886986l6.7026987-11.608902h8.0600014
	l0.0994053,0.1612015L21.2265854,52.9530983z M47.5654831,49.5942001l-3.3409004-0.3886986
	c-0.4334984-0.0576019-0.8583984,0.1918983-1.0331993,0.5966988l-1.3602982,3.150898l-9.1275024-14.8065987l0.0992012-0.1612015
	h8.0610008L47.5654831,49.5942001z M60.3349838,35.9852982H38.347683V23.6669998h21.9248009
	C62.5702896,28.2621994,62.5908852,32.3027,60.3349838,35.9852982z"/>
<g>
</g>
<g>
</g>
<g>
</g>
<g>
</g>
<g>
</g>
<g>
</g>
<g>
</g>
<g>
</g>
<g>
</g>
<g>
</g>
<g>
</g>
<g>
</g>
<g>
</g>
<g>
</g>
<g>
</g>
</svg>
