<svg id="Layer_1" data-name="Layer 1" xmlns="http://www.w3.org/2000/svg" viewBox="0 0 386.96 499"><path d="M347.77,218l-10.87-.62,5.7-9.28a101.23,101.23,0,0,0,15-53.06V23.92h58.46V6.5H95.94V23.92h17.83v102.9h17.42V23.92H154.4V155a101.23,101.23,0,0,0,15,53.06l5.7,9.26-10.87.64A107.92,107.92,0,0,0,62.52,325.66V505.5h387V325.66A107.92,107.92,0,0,0,347.77,218Zm.65,17.23L264.71,344.67v-88.3l5.59-.78A100.89,100.89,0,0,0,299,247.05l.58-.27c.95-.45,1.92-.93,2.89-1.43l.47-.25.74-.39.21-.11.78-.43.44-.24a100.72,100.72,0,0,0,11.63-7.46l1.73-1.28ZM171.82,23.92H340.18V86.1H171.82Zm75.47,464.16H145.52V329H128.1V488.08H79.94V325.66A90.72,90.72,0,0,1,140,240.47l4.47-1.6L247.29,373.34Zm0-143.41L163.58,235.19h30l1.73,1.28a100,100,0,0,0,11.62,7.45l1.26.69.22.12,1.13.6c1.07.55,2.09,1,3,1.46l.56.27a100.84,100.84,0,0,0,28.65,8.53l5.59.78ZM261.63,239l-.4,0-1.19.07c-1.45.08-2.75.11-4,.11s-2.6,0-4-.1l-1.2-.08-.42,0c-.77-.05-1.52-.1-2.26-.17s-1.32-.14-2-.22H246c-.49,0-1-.12-1.48-.19l-.15,0c-.84-.11-1.64-.24-2.44-.37l-1.21-.22c-.91-.17-1.8-.33-2.7-.53l-.76-.18a84,84,0,0,1-12.24-3.8l-.38-.15-.85-.33-1.59-.69-.3-.13c-.67-.3-1.29-.58-1.9-.87l-1.24-.6c-.85-.42-1.71-.86-2.55-1.31l-.64-.35c-1.22-.66-2.26-1.27-3.22-1.85l-.09-.06A83.72,83.72,0,0,1,171.82,155V103.51H340.18V155a83.69,83.69,0,0,1-40.48,71.93l-.21.13c-1.07.64-2.07,1.21-3.08,1.76l-.64.35c-.87.47-1.72.9-2.58,1.33l-.49.24-.8.38c-.48.23-1,.49-1.62.74l-1.37.61-.68.29-.89.35-.44.17a85.26,85.26,0,0,1-12.23,3.79l-.66.16c-1,.21-1.86.37-2.75.54l-.52.09L270,238c-.75.12-1.54.25-2.35.36l-.22,0-1.45.18c-.7.08-1.41.17-2.12.23S262.37,238.92,261.63,239ZM432.06,488.08H383.9V329H366.48V488.08H264.71V373.34l.62-.8L367.54,238.87l4.47,1.59a90.75,90.75,0,0,1,60.05,85.2Z" transform="translate(-62.52 -6.5)"/></svg>