<?xml version="1.0" encoding="iso-8859-1"?>
<!-- Generator: Adobe Illustrator 19.0.0, SVG Export Plug-In . SVG Version: 6.00 Build 0)  -->
<svg version="1.1" id="Layer_1" xmlns="http://www.w3.org/2000/svg" xmlns:xlink="http://www.w3.org/1999/xlink" x="0px" y="0px"
	 viewBox="0 0 512 512" style="enable-background:new 0 0 512 512;" xml:space="preserve">
<g>
	<g>
		<path d="M468.48,196.267H323.413v-25.6c0-2.56-0.853-5.12-2.56-6.827l-59.733-51.2c-3.413-2.56-7.68-2.56-11.093,0l-59.733,51.2
			c-1.707,1.707-2.56,4.267-2.56,6.827v25.6H42.667c-5.12,0-8.533,3.413-8.533,8.533v247.467c0,5.12,3.413,8.533,8.533,8.533
			h145.067v25.6c0,5.12,3.413,8.533,8.533,8.533h119.467c5.12,0,8.533-3.413,8.533-8.533v-25.6H468.48
			c5.12,0,8.533-3.413,8.533-8.533V204.8C477.013,199.68,473.6,196.267,468.48,196.267z M460.8,443.733H315.733
			c-5.12,0-8.533,3.413-8.533,8.533v25.6H204.8v-25.6c0-5.12-3.413-8.533-8.533-8.533H51.2v-230.4h145.067
			c5.12,0,8.533-3.413,8.533-8.533v-29.867l51.2-43.52l51.2,43.52V204.8c0,5.12,3.413,8.533,8.533,8.533H460.8V443.733z"/>
	</g>
</g>
<g>
	<g>
		<path d="M256,17.067c-5.12,0-8.533,3.413-8.533,8.533v93.867c0,5.12,3.413,8.533,8.533,8.533s8.533-3.413,8.533-8.533V25.6
			C264.533,20.48,261.12,17.067,256,17.067z"/>
	</g>
</g>
<g>
	<g>
		<path d="M324.267,17.067H256c-5.12,0-8.533,3.413-8.533,8.533v51.2c0,5.12,3.413,8.533,8.533,8.533h68.267
			c5.12,0,8.533-3.413,8.533-8.533V25.6C332.8,20.48,329.387,17.067,324.267,17.067z M315.733,68.267h-51.2V34.133h51.2V68.267z"/>
	</g>
</g>
<g>
	<g>
		<path d="M136.533,238.933H102.4c-5.12,0-8.533,3.413-8.533,8.533V307.2c0,5.12,3.413,8.533,8.533,8.533h34.133
			c5.12,0,8.533-3.413,8.533-8.533v-59.733C145.067,242.347,141.653,238.933,136.533,238.933z M128,298.667h-17.067V256H128V298.667
			z"/>
	</g>
</g>
<g>
	<g>
		<path d="M136.533,341.333H102.4c-5.12,0-8.533,3.413-8.533,8.533V409.6c0,5.12,3.413,8.533,8.533,8.533h34.133
			c5.12,0,8.533-3.413,8.533-8.533v-59.733C145.067,344.747,141.653,341.333,136.533,341.333z M128,401.067h-17.067V358.4H128
			V401.067z"/>
	</g>
</g>
<g>
	<g>
		<path d="M273.067,238.933h-34.133c-5.12,0-8.533,3.413-8.533,8.533V307.2c0,5.12,3.413,8.533,8.533,8.533h34.133
			c5.12,0,8.533-3.413,8.533-8.533v-59.733C281.6,242.347,278.187,238.933,273.067,238.933z M264.533,298.667h-17.067V256h17.067
			V298.667z"/>
	</g>
</g>
<g>
	<g>
		<path d="M409.6,238.933h-34.133c-5.12,0-8.533,3.413-8.533,8.533V307.2c0,5.12,3.413,8.533,8.533,8.533H409.6
			c5.12,0,8.533-3.413,8.533-8.533v-59.733C418.133,242.347,414.72,238.933,409.6,238.933z M401.067,298.667H384V256h17.067V298.667
			z"/>
	</g>
</g>
<g>
	<g>
		<path d="M409.6,341.333h-34.133c-5.12,0-8.533,3.413-8.533,8.533V409.6c0,5.12,3.413,8.533,8.533,8.533H409.6
			c5.12,0,8.533-3.413,8.533-8.533v-59.733C418.133,344.747,414.72,341.333,409.6,341.333z M401.067,401.067H384V358.4h17.067
			V401.067z"/>
	</g>
</g>
<g>
	<g>
		<path d="M256,349.867c-18.773,0-34.133,15.36-34.133,34.133v102.4c0,5.12,3.413,8.533,8.533,8.533h51.2
			c5.12,0,8.533-3.413,8.533-8.533V384C290.133,365.227,274.773,349.867,256,349.867z M273.067,477.867h-34.133V384
			c0-9.387,7.68-17.067,17.067-17.067s17.067,7.68,17.067,17.067V477.867z"/>
	</g>
</g>
<g>
	<g>
		<path d="M162.133,162.133h-102.4c-5.12,0-8.533,3.413-8.533,8.533V204.8c0,5.12,3.413,8.533,8.533,8.533h102.4
			c5.12,0,8.533-3.413,8.533-8.533v-34.133C170.667,165.547,167.253,162.133,162.133,162.133z M153.6,196.267H68.267V179.2H153.6
			V196.267z"/>
	</g>
</g>
<g>
	<g>
		<path d="M452.267,162.133h-102.4c-5.12,0-8.533,3.413-8.533,8.533V204.8c0,5.12,3.413,8.533,8.533,8.533h102.4
			c5.12,0,8.533-3.413,8.533-8.533v-34.133C460.8,165.547,457.387,162.133,452.267,162.133z M443.733,196.267H358.4V179.2h85.333
			V196.267z"/>
	</g>
</g>
<g>
	<g>
		<path d="M196.267,443.733H8.533c-5.12,0-8.533,3.413-8.533,8.533V486.4c0,5.12,3.413,8.533,8.533,8.533h187.733
			c5.12,0,8.533-3.413,8.533-8.533v-34.133C204.8,447.147,201.387,443.733,196.267,443.733z M187.733,477.867H17.067V460.8h170.667
			V477.867z"/>
	</g>
</g>
<g>
	<g>
		<path d="M503.467,443.733H315.733c-5.12,0-8.533,3.413-8.533,8.533V486.4c0,5.12,3.413,8.533,8.533,8.533h187.733
			c5.12,0,8.533-3.413,8.533-8.533v-34.133C512,447.147,508.587,443.733,503.467,443.733z M494.933,477.867H324.267V460.8h170.667
			V477.867z"/>
	</g>
</g>
<g>
	<g>
		<path d="M153.6,298.667H85.333c-5.12,0-8.533,3.413-8.533,8.533s3.413,8.533,8.533,8.533H153.6c5.12,0,8.533-3.413,8.533-8.533
			S158.72,298.667,153.6,298.667z"/>
	</g>
</g>
<g>
	<g>
		<path d="M153.6,401.067H85.333c-5.12,0-8.533,3.413-8.533,8.533c0,5.12,3.413,8.533,8.533,8.533H153.6
			c5.12,0,8.533-3.413,8.533-8.533C162.133,404.48,158.72,401.067,153.6,401.067z"/>
	</g>
</g>
<g>
	<g>
		<path d="M426.667,401.067H358.4c-5.12,0-8.533,3.413-8.533,8.533c0,5.12,3.413,8.533,8.533,8.533h68.267
			c5.12,0,8.533-3.413,8.533-8.533C435.2,404.48,431.787,401.067,426.667,401.067z"/>
	</g>
</g>
<g>
	<g>
		<path d="M426.667,298.667H358.4c-5.12,0-8.533,3.413-8.533,8.533s3.413,8.533,8.533,8.533h68.267c5.12,0,8.533-3.413,8.533-8.533
			S431.787,298.667,426.667,298.667z"/>
	</g>
</g>
<g>
	<g>
		<path d="M290.133,298.667h-68.267c-5.12,0-8.533,3.413-8.533,8.533s3.413,8.533,8.533,8.533h68.267
			c5.12,0,8.533-3.413,8.533-8.533S295.253,298.667,290.133,298.667z"/>
	</g>
</g>
<g>
	<g>
		<path d="M323.413,204.8v-34.133c0-2.56-0.853-5.12-2.56-6.827l-59.733-51.2c-3.413-2.56-7.68-2.56-11.093,0l-59.733,51.2
			c-1.707,1.707-2.56,4.267-2.56,6.827V204.8c0,5.12,3.413,8.533,8.533,8.533h119.467C320.853,213.333,324.267,209.92,323.413,204.8
			z M307.2,196.267H204.8v-21.333l51.2-43.52l51.2,43.52V196.267z"/>
	</g>
</g>
<g>
</g>
<g>
</g>
<g>
</g>
<g>
</g>
<g>
</g>
<g>
</g>
<g>
</g>
<g>
</g>
<g>
</g>
<g>
</g>
<g>
</g>
<g>
</g>
<g>
</g>
<g>
</g>
<g>
</g>
</svg>
